<svg width="25" height="25" viewBox="0 0 25 25" fill="none" xmlns="http://www.w3.org/2000/svg">
<path d="M0 12.1094C0 5.41992 5.41992 0 12.1094 0C18.7988 0 24.2188 5.41992 24.2188 12.1094C24.2188 18.7988 18.7988 24.2188 12.1094 24.2188C5.41992 24.2187 0 18.7988 0 12.1094ZM14.2578 17.7734L14.2578 12.1094L17.7197 12.1094C18.2422 12.1094 18.5059 11.4746 18.1348 11.1084L12.5244 5.52734C12.2949 5.29785 11.9287 5.29785 11.6992 5.52734L6.08887 11.1084C5.71777 11.4795 5.98145 12.1094 6.50391 12.1094H9.96094L9.96094 17.7734C9.96094 18.0957 10.2246 18.3594 10.5469 18.3594H13.6719C13.9941 18.3594 14.2578 18.0957 14.2578 17.7734Z" fill="black"/>
</svg>
