<svg width="28" height="25" viewBox="0 0 28 25" fill="none" xmlns="http://www.w3.org/2000/svg">
<path d="M13.6288 6.48566L4.66704 14.9604V24.107C4.66704 24.3439 4.74897 24.571 4.89482 24.7385C5.04067 24.9059 5.23849 25 5.44475 25L10.8917 24.9838C11.0973 24.9826 11.2941 24.888 11.4391 24.7207C11.5841 24.5534 11.6655 24.3269 11.6655 24.0909V18.7493C11.6655 18.5125 11.7475 18.2853 11.8933 18.1179C12.0392 17.9504 12.237 17.8563 12.4432 17.8563H15.5541C15.7604 17.8563 15.9582 17.9504 16.104 18.1179C16.2499 18.2853 16.3318 18.5125 16.3318 18.7493V24.087C16.3315 24.2045 16.3514 24.3209 16.3903 24.4295C16.4293 24.5382 16.4865 24.637 16.5588 24.7202C16.631 24.8034 16.7169 24.8694 16.8114 24.9145C16.9059 24.9595 17.0072 24.9827 17.1096 24.9827L22.5545 25C22.7608 25 22.9586 24.9059 23.1045 24.7385C23.2503 24.571 23.3323 24.3439 23.3323 24.107V14.9542L14.3725 6.48566C14.2671 6.38817 14.1359 6.33501 14.0006 6.33501C13.8653 6.33501 13.7341 6.38817 13.6288 6.48566ZM27.7847 12.2458L23.7211 8.39993V0.669718C23.7211 0.492097 23.6597 0.321752 23.5503 0.196156C23.4409 0.0705595 23.2925 0 23.1378 0H20.4158C20.2611 0 20.1128 0.0705595 20.0034 0.196156C19.894 0.321752 19.8325 0.492097 19.8325 0.669718V4.72207L15.4807 0.611117C15.0631 0.21653 14.539 0.000788785 13.9982 0.000788785C13.4573 0.000788785 12.9333 0.21653 12.5157 0.611117L0.211684 12.2458C0.15262 12.3018 0.103754 12.3707 0.0678782 12.4484C0.0320021 12.5262 0.00981906 12.6113 0.00259668 12.6989C-0.0046257 12.7865 0.0032541 12.8748 0.0257858 12.9589C0.0483176 13.043 0.0850596 13.1212 0.133913 13.189L1.3734 14.9191C1.42212 14.9871 1.48205 15.0434 1.54975 15.0848C1.61745 15.1262 1.69159 15.1519 1.76794 15.1603C1.84429 15.1688 1.92134 15.1598 1.99468 15.1341C2.06802 15.1083 2.13621 15.0661 2.19535 15.01L13.6288 4.19746C13.7341 4.09997 13.8653 4.04681 14.0006 4.04681C14.1359 4.04681 14.2671 4.09997 14.3725 4.19746L25.8064 15.01C25.8654 15.0661 25.9335 15.1083 26.0067 15.1342C26.08 15.1601 26.1569 15.1691 26.2332 15.1608C26.3095 15.1525 26.3836 15.1271 26.4513 15.0859C26.5191 15.0447 26.579 14.9886 26.6278 14.9208L27.8673 13.1906C27.9161 13.1225 27.9527 13.0439 27.975 12.9594C27.9973 12.875 28.0048 12.7863 27.9971 12.6985C27.9894 12.6107 27.9667 12.5255 27.9302 12.4478C27.8938 12.3701 27.8443 12.3015 27.7847 12.2458Z" fill="white"/>
</svg>
