<svg width="25" height="28" viewBox="0 0 25 28" fill="none" xmlns="http://www.w3.org/2000/svg">
<path d="M0 0C26.6518 0 20.4576 19.8312 20.4855 22.8937L25 28H23.5491L19.6205 23.55C17.4442 23.8125 12.6786 25.7062 7.65625 21.2375C2.62277 16.7687 2.90179 11.4187 0 0ZM4.44754 2.875C1.67411 1.40625 4.15737 3.45 4.15737 3.45C6.67969 5.4 7.8404 8.05625 9.19085 10.9438C10.9487 14.7063 13.5993 19.675 17.2377 21.425C20.865 23.175 19.1462 22.2062 17.5725 20.8937C15.9989 19.5687 13.7667 15.4563 12.4944 12.7563C10.7254 9.00625 9.0904 5.34375 4.44754 2.875Z" fill="white"/>
</svg>
