<svg width="25" height="27" viewBox="0 0 25 27" fill="none" xmlns="http://www.w3.org/2000/svg">
<path d="M16.1788 3.95284L17.9441 5.86589L13.6816 10.4826V3.95284H16.1788ZM7.10614 5.86589L11.3687 10.4826V3.95284H8.87151L7.10614 5.86589ZM9.42458 3.35539H11.9218V11.074L12.5251 11.7257L13.1285 11.074V3.35539H15.6257L12.5251 0L9.42458 3.35539ZM10.8883 13.5L10.2849 12.8482H3.10056V10.1446L0 13.5L3.10056 16.8554V14.1518H10.2849L10.8883 13.5ZM15.3184 12.2508H21.3464V9.54716L19.581 7.63411L15.3184 12.2508ZM25 13.5L21.8994 10.1446V12.8482H14.7654L14.162 13.5L14.7654 14.1518H21.8994V16.8554L25 13.5ZM3.65363 8.70228L5.46927 6.78923L10.514 12.2508H11.3687V11.3274L6.32402 5.86589L8.08939 3.95284H3.65363V8.70228ZM21.3464 3.95284H16.9609L18.7263 5.86589L13.6816 11.3274V12.2508H14.5363L19.581 6.78923L21.3464 8.70228V3.95284ZM11.3687 23.0472V16.5235L7.10614 21.1401L8.87151 23.0532H11.3687V23.0472ZM3.65363 12.2508H9.73184L5.46927 7.63411L3.65363 9.54716V12.2508ZM21.3464 18.2977L19.581 20.2108L14.5363 14.7492H13.6816V15.6726L18.7263 21.1341L16.9609 23.0472H21.3464V18.2977ZM21.3464 14.7492H15.3184L19.581 19.3659L21.3464 17.4528V14.7492ZM17.9441 21.1341L13.6816 16.5174V23.0411H16.1788L17.9441 21.1341ZM5.46927 19.3659L9.73184 14.7492H3.65363V17.4528L5.46927 19.3659ZM15.6257 23.6446H13.1285V15.926L12.5251 15.2743L11.9218 15.926V23.6446H9.42458L12.5251 27L15.6257 23.6446ZM6.32402 21.1341L11.3687 15.6726V14.7492H10.514L5.46927 20.2108L3.65363 18.2977V23.0472H8.08939L6.32402 21.1341Z" fill="white"/>
</svg>
