<svg width="24" height="25" viewBox="0 0 24 25" fill="none" xmlns="http://www.w3.org/2000/svg">
<path d="M21.9971 4.0857L12.6221 0.179446C12.3365 0.0609792 12.0304 0 11.7212 0C11.412 0 11.1059 0.0609792 10.8203 0.179446L1.44531 4.0857C0.571289 4.44702 0 5.30152 0 6.24878C0 15.9412 5.59082 22.6404 10.8154 24.8181C11.3916 25.0574 12.041 25.0574 12.6172 24.8181C16.8018 23.075 23.4375 17.0544 23.4375 6.24878C23.4375 5.30152 22.8662 4.44702 21.9971 4.0857ZM11.7236 21.7908L11.7188 3.18726L20.3076 6.76636C20.1465 14.1589 16.2988 19.5154 11.7236 21.7908Z" fill="#528265"/>
</svg>
