<svg width="25" height="28" viewBox="0 0 25 28" fill="none" xmlns="http://www.w3.org/2000/svg">
<path d="M24.1071 24H0.892857C0.656057 24 0.428955 24.1054 0.261512 24.2929C0.0940686 24.4804 0 24.7348 0 25L0 27C0 27.2652 0.0940686 27.5196 0.261512 27.7071C0.428955 27.8946 0.656057 28 0.892857 28H24.1071C24.3439 28 24.571 27.8946 24.7385 27.7071C24.9059 27.5196 25 27.2652 25 27V25C25 24.7348 24.9059 24.4804 24.7385 24.2929C24.571 24.1054 24.3439 24 24.1071 24ZM24.1071 16H0.892857C0.656057 16 0.428955 16.1054 0.261512 16.2929C0.0940686 16.4804 0 16.7348 0 17L0 19C0 19.2652 0.0940686 19.5196 0.261512 19.7071C0.428955 19.8946 0.656057 20 0.892857 20H24.1071C24.3439 20 24.571 19.8946 24.7385 19.7071C24.9059 19.5196 25 19.2652 25 19V17C25 16.7348 24.9059 16.4804 24.7385 16.2929C24.571 16.1054 24.3439 16 24.1071 16ZM24.1071 8H0.892857C0.656057 8 0.428955 8.10536 0.261512 8.29289C0.0940686 8.48043 0 8.73478 0 9L0 11C0 11.2652 0.0940686 11.5196 0.261512 11.7071C0.428955 11.8946 0.656057 12 0.892857 12H24.1071C24.3439 12 24.571 11.8946 24.7385 11.7071C24.9059 11.5196 25 11.2652 25 11V9C25 8.73478 24.9059 8.48043 24.7385 8.29289C24.571 8.10536 24.3439 8 24.1071 8ZM24.1071 0H0.892857C0.656057 0 0.428955 0.105357 0.261512 0.292893C0.0940686 0.48043 0 0.734784 0 1L0 3C0 3.26522 0.0940686 3.51957 0.261512 3.70711C0.428955 3.89464 0.656057 4 0.892857 4H24.1071C24.3439 4 24.571 3.89464 24.7385 3.70711C24.9059 3.51957 25 3.26522 25 3V1C25 0.734784 24.9059 0.48043 24.7385 0.292893C24.571 0.105357 24.3439 0 24.1071 0Z" fill="white"/>
</svg>
