<svg width="54" height="39" viewBox="0 0 54 39" fill="none" xmlns="http://www.w3.org/2000/svg">
<path d="M52.8716 6.10218C52.2506 3.70023 50.4208 1.80852 48.0974 1.16655C43.8863 0 27 0 27 0C27 0 10.1138 0 5.90255 1.16655C3.57924 1.80862 1.74943 3.70023 1.12838 6.10218C0 10.4559 0 19.5394 0 19.5394C0 19.5394 0 28.623 1.12838 32.9766C1.74943 35.3786 3.57924 37.1915 5.90255 37.8335C10.1138 39 27 39 27 39C27 39 43.8862 39 48.0974 37.8335C50.4208 37.1915 52.2506 35.3786 52.8716 32.9766C54 28.623 54 19.5394 54 19.5394C54 19.5394 54 10.4559 52.8716 6.10218ZM21.4772 27.7866V11.2922L35.5908 19.5396L21.4772 27.7866Z" fill="#FE0808"/>
</svg>
